<svg xmlns="http://www.w3.org/2000/svg" width="256" height="256" viewBox="0 0 100 100"><rect width="100" height="100" rx="20" fill="#181818"></rect><path d="M71.18 50.48L34.22 55.64Q37.46 71.36 54.86 71.36L54.86 71.36Q59.90 71.36 63.98 69.68Q68.06 68 70.46 66.08L70.46 66.08Q73.34 67.76 73.34 70.64L73.34 70.64Q73.34 72.32 71.84 73.88Q70.34 75.44 67.76 76.64Q65.18 77.84 61.76 78.56Q58.34 79.28 54.38 79.28L54.38 79.28Q40.46 79.28 32.36 71.72Q24.26 64.16 24.26 49.64L24.26 49.64Q24.26 42.80 26.24 37.46Q28.22 32.12 31.76 28.40Q35.30 24.68 40.22 22.70Q45.14 20.72 50.90 20.72L50.90 20.72Q56.30 20.72 60.86 22.52Q65.42 24.32 68.72 27.62Q72.02 30.92 73.88 35.42Q75.74 39.92 75.74 45.32L75.74 45.32Q75.74 47.96 74.54 49.10Q73.34 50.24 71.18 50.48L71.18 50.48ZM50.78 28.52L50.78 28.52Q43.46 28.52 38.66 33.62Q33.86 38.72 33.62 48.20L33.62 48.20L66.62 43.64Q66.02 37.04 62 32.78Q57.98 28.52 50.78 28.52Z" fill="#008fc4"></path></svg>