<svg xmlns="http://www.w3.org/2000/svg" width="256" height="256" viewBox="0 0 100 100" xmlns:v="https://vecta.io/nano"><rect width="100" height="100" rx="20" fill="#181818"/><path d="M69.04 36c-2.56 0-4.933.44-7.12 1.32s-4.067 2.147-5.64 3.8-2.8 3.667-3.68 6.04-1.32 5.08-1.32 8.12c0 6.453 1.8 11.359 5.4 14.719s8.493 5.04 14.68 5.04c1.76 0 3.4-.16 4.92-.48s2.853-.746 4-1.279 2.053-1.147 2.72-1.84.999-1.413.999-2.16c0-1.28-.64-2.294-1.92-3.04-1.067.853-2.506 1.654-4.32 2.4s-3.841 1.12-6.081 1.12c-7.733 0-12.32-3.494-13.76-10.48l24.64-3.439c.96-.107 1.707-.413 2.24-.92s.8-1.347.8-2.52c0-2.4-.414-4.6-1.241-6.6s-1.973-3.734-3.44-5.2-3.213-2.6-5.24-3.4-4.24-1.2-6.64-1.2zm-.08 5.2c3.2 0 5.693.946 7.48 2.84s2.813 4.307 3.08 7.24L57.52 54.32c.107-4.213 1.227-7.453 3.36-9.72s4.826-3.4 8.08-3.4z" fill="#008fc4"/><path d="M17.44 24.96c-.64 0-1.24.067-1.8.2l-1.241.36v44.96c0 1.067.334 1.92 1 2.56s1.507.96 2.52.96h24.24c.8 0 1.44-.266 1.92-.8s.719-1.253.719-2.16c0-1.173-.293-2.054-.88-2.641H20.96V27.92c0-1.973-1.174-2.959-3.52-2.959z" fill="#fd7e14"/></svg>